<svg xmlns="http://www.w3.org/2000/svg" version="1.1" xmlns:xlink="http://www.w3.org/1999/xlink" xmlns:svgjs="http://svgjs.dev/svgjs" width="1000" height="1000" viewBox="0 0 1000 1000"><rect width="1000" height="1000" fill="#ffffff"></rect><g transform="matrix(0.7,0,0,0.7,149.57575963065966,400.89949677781465)"><svg viewBox="0 0 396 112" data-background-color="#ffffff" preserveAspectRatio="xMidYMid meet" height="282" width="1000" xmlns="http://www.w3.org/2000/svg" xmlns:xlink="http://www.w3.org/1999/xlink"><g id="tight-bounds" transform="matrix(1,0,0,1,0.23999883751253037,0.2272358707434705)"><svg viewBox="0 0 395.52 111.54552825851306" height="111.54552825851306" width="395.52"><g><svg viewBox="0 0 595.634331876184 167.98226688419152" height="111.54552825851306" width="395.52"><g transform="matrix(1,0,0,1,200.11433187618394,20.933805942624673)"><svg viewBox="0 0 395.52 126.11465499894217" height="126.11465499894217" width="395.52"><g id="textblocktransform"><svg viewBox="0 0 395.52 126.11465499894217" height="126.11465499894217" width="395.52" id="textblock"><g><svg viewBox="0 0 395.52 68.05449302765304" height="68.05449302765304" width="395.52"><g transform="matrix(1,0,0,1,0,0)"><svg width="395.52" viewBox="1.7599999904632568 -35.54999923706055 207.9199981689453 35.54999923706055" height="68.05449302765304" data-palette-color="#000000"><g class="wordmark-text-0" data-fill-palette-color="primary" id="text-0"><path d="M15.65 0L1.76 0 1.76-3.76 5.62-4.49 5.62-31.03 1.76-31.76 1.76-35.55 5.62-35.55 14.43-35.55 24.85-9.84 25-9.84 35.11-35.55 47.92-35.55 47.92-31.76 44.04-31.03 44.04-4.49 47.92-3.76 47.92 0 34.03 0 34.03-3.76 38.11-4.49 38.11-12.77 38.16-28.32 38.04-28.34 27.03-0.81 22.56-0.81 11.23-28.2 11.11-28.17 11.43-13.18 11.43-4.49 15.65-3.76 15.65 0ZM62.18 0L50.88 0 50.88-3.76 53.46-4.13 65.23-35.55 71.21-35.55 82.83-4.13 85.42-3.76 85.42 0 74.12 0 74.12-3.76 76.66-4.22 74.78-9.81 61.55-9.81 59.62-4.22 62.18-3.76 62.18 0ZM67.77-27.64L63.16-14.53 73.19-14.53 68.58-27.69 68.26-28.64 68.11-28.64 67.77-27.64ZM102.24 0L88.33 0 88.33-3.76 92.21-4.49 92.21-31.03 88.33-31.76 88.33-35.55 102.24-35.55 102.24-31.76 98.36-31.03 98.36-19.95 113.91-19.95 113.91-31.03 110.03-31.76 110.03-35.55 113.91-35.55 120.04-35.55 123.92-35.55 123.92-31.76 120.04-31.03 120.04-4.49 123.92-3.76 123.92 0 110.03 0 110.03-3.76 113.91-4.49 113.91-15.16 98.36-15.16 98.36-4.49 102.24-3.76 102.24 0ZM153.41 0L127.14 0 127.14-3.76 131.02-4.49 131.02-31.03 127.14-31.76 127.14-35.55 131.02-35.55 137.18-35.55 141.35-35.55 141.35-31.76 137.18-31.03 137.18-4.71 148.28-4.71 148.7-10.08 153.41-10.08 153.41 0ZM170.42 0L156.53 0 156.53-3.76 160.41-4.49 160.41-31.03 156.53-31.76 156.53-35.55 170.42-35.55 170.42-31.76 166.57-31.03 166.57-4.49 170.42-3.76 170.42 0ZM187.61 0L173.69 0 173.69-3.76 177.58-4.49 177.58-31.03 173.69-31.76 173.69-35.55 177.58-35.55 183.8-35.55 200.11-9.59 200.26-9.64 200.26-31.03 195.76-31.76 195.76-35.55 205.8-35.55 209.68-35.55 209.68-31.76 205.8-31.03 205.8 0 199.96 0 183.26-25.85 183.12-25.83 183.12-4.49 187.61-3.76 187.61 0Z" fill="#000000" data-fill-palette-color="primary"></path></g></svg></g></svg></g><g transform="matrix(1,0,0,1,0,84.12052552364926)"><svg viewBox="0 0 232.20979199999996 41.994129475292915" height="41.994129475292915" width="232.20979199999996"><g transform="matrix(1,0,0,1,0,0)"><svg width="232.20979199999996" viewBox="3.25 -35 196.27999877929688 35.5" height="41.994129475292915" data-palette-color="#99592a"><path d="M3.25 0L3.25-35 13.05-35Q18.55-35 21.63-32.33 24.7-29.65 24.7-24.25L24.7-24.25Q24.7-21.05 23.38-18.63 22.05-16.2 19.6-14.8L19.6-14.8 26.4 0 20.1 0 14.2-13.25 13.25-13.2 8.8-13.2 8.8 0 3.25 0ZM8.8-18.1L12.55-18.1Q15.75-18.1 17.35-19.55 18.95-21 18.95-24.1L18.95-24.1Q18.95-27.2 17.35-28.65 15.75-30.1 12.55-30.1L12.55-30.1 8.8-30.1 8.8-18.1ZM39.05 0.5Q35.3 0.5 32.65-1.25 30-3 28.67-5.95 27.35-8.9 27.35-12.5L27.35-12.5Q27.35-16.1 28.6-19 29.85-21.9 32.22-23.58 34.6-25.25 37.95-25.25L37.95-25.25Q42.15-25.25 44.65-22.33 47.15-19.4 47.15-14.45L47.15-14.45Q47.15-13.2 46.9-11.55L46.9-11.55 32.9-11.55Q33.2-7.8 35-5.93 36.8-4.05 39.55-4.05L39.55-4.05Q42.85-4.05 45.95-5.85L45.95-5.85 46.2-1.1Q43.25 0.5 39.05 0.5L39.05 0.5ZM33.05-15.35L41.65-15.35Q41.65-17.8 40.7-19.25 39.75-20.7 37.7-20.7L37.7-20.7Q35.8-20.7 34.6-19.35 33.4-18 33.05-15.35L33.05-15.35ZM57.09 0.5Q55 0.5 53.25 0.05 51.5-0.4 49.8-1.35L49.8-1.35 50.34-6.3Q53.84-3.9 56.7-3.9L56.7-3.9Q58.4-3.9 59.34-4.58 60.3-5.25 60.3-6.5L60.3-6.5Q60.3-7.85 59.4-8.65 58.5-9.45 55.75-10.75L55.75-10.75Q52.75-12.15 51.37-13.78 50-15.4 50-18.15L50-18.15Q50-21.3 52.22-23.28 54.45-25.25 58.25-25.25L58.25-25.25Q61.8-25.25 64.7-23.5L64.7-23.5 64.15-18.75Q62.75-19.85 61.47-20.43 60.2-21 58.59-21L58.59-21Q57.05-21 56.15-20.33 55.25-19.65 55.25-18.45L55.25-18.45Q55.25-17.2 56.15-16.5 57.05-15.8 59.75-14.45L59.75-14.45Q62.84-12.95 64.2-11.25 65.55-9.55 65.55-6.85L65.55-6.85Q65.55-3.45 63.25-1.48 60.95 0.5 57.09 0.5L57.09 0.5ZM76.24 0.5Q73.39 0.5 71.92-1.18 70.44-2.85 70.44-5.8L70.44-5.8 70.44-20.3 67.39-20.3 67.89-24.8 70.44-24.8 70.44-30.5 75.84-31.1 75.84-24.8 80.54-24.8 80.54-20.3 75.84-20.3 75.84-7.4Q75.84-5.65 76.54-4.85 77.24-4.05 78.84-4.05L78.84-4.05 80.54-4.05 80.04 0.5 76.24 0.5ZM88.94 0.5Q86.14 0.5 84.24-1.4 82.34-3.3 82.34-6.5L82.34-6.5Q82.34-9.85 84.37-11.9 86.39-13.95 89.14-14.8 91.89-15.65 94.39-15.75L94.39-15.75Q94.39-18.25 93.54-19.33 92.69-20.4 90.64-20.4L90.64-20.4Q89.14-20.4 87.74-19.9 86.34-19.4 84.64-18.4L84.64-18.4 84.19-22.95Q87.94-25.25 91.99-25.25L91.99-25.25Q99.89-25.25 99.89-15.9L99.89-15.9 99.89-8.45Q99.89-6.55 100.04-5.65 100.19-4.75 100.57-4.4 100.94-4.05 101.74-4.05L101.74-4.05 102.44-4.05 101.99 0.5 99.94 0.5Q98.24 0.5 97.02-0.33 95.79-1.15 95.14-2.65L95.14-2.65Q93.84-1.1 92.34-0.3 90.84 0.5 88.94 0.5L88.94 0.5ZM90.69-3.85Q92.79-3.85 94.44-6.2L94.44-6.2 94.44-11.95Q88.04-11.3 88.04-7L88.04-7Q88.04-3.85 90.69-3.85L90.69-3.85ZM118.59-24.8L124.04-24.8 124.04 0 119.34 0 119.09-2.25Q116.79 0.45 112.84 0.45L112.84 0.45Q109.04 0.45 107.11-2.08 105.19-4.6 105.19-9L105.19-9 105.19-24.8 110.59-24.8 110.59-9.7Q110.59-4.15 114.29-4.15L114.29-4.15Q116.89-4.15 118.59-6.65L118.59-6.65 118.59-24.8ZM128.89 0L128.89-24.8 133.54-24.8 133.99-21.65Q135.49-23.5 136.81-24.38 138.14-25.25 139.79-25.25L139.79-25.25Q140.44-25.25 140.99-25.1L140.99-25.1 140.54-19.45Q139.94-19.65 138.99-19.65L138.99-19.65Q136.49-19.65 134.34-17.15L134.34-17.15 134.34 0 128.89 0ZM148.08 0.5Q145.28 0.5 143.38-1.4 141.48-3.3 141.48-6.5L141.48-6.5Q141.48-9.85 143.51-11.9 145.53-13.95 148.28-14.8 151.03-15.65 153.53-15.75L153.53-15.75Q153.53-18.25 152.68-19.33 151.83-20.4 149.78-20.4L149.78-20.4Q148.28-20.4 146.88-19.9 145.48-19.4 143.78-18.4L143.78-18.4 143.33-22.95Q147.08-25.25 151.13-25.25L151.13-25.25Q159.03-25.25 159.03-15.9L159.03-15.9 159.03-8.45Q159.03-6.55 159.18-5.65 159.33-4.75 159.71-4.4 160.08-4.05 160.88-4.05L160.88-4.05 161.58-4.05 161.13 0.5 159.08 0.5Q157.38 0.5 156.16-0.33 154.93-1.15 154.28-2.65L154.28-2.65Q152.98-1.1 151.48-0.3 149.98 0.5 148.08 0.5L148.08 0.5ZM149.83-3.85Q151.93-3.85 153.58-6.2L153.58-6.2 153.58-11.95Q147.18-11.3 147.18-7L147.18-7Q147.18-3.85 149.83-3.85L149.83-3.85ZM175.78-25.25Q179.58-25.25 181.56-22.6 183.53-19.95 183.53-15.45L183.53-15.45 183.53 0 178.13 0 178.13-14.75Q178.13-17.7 177.21-19.2 176.28-20.7 174.33-20.7L174.33-20.7Q171.58-20.7 169.93-18.05L169.93-18.05 169.93 0 164.53 0 164.53-24.8 169.18-24.8 169.43-22.5Q171.78-25.25 175.78-25.25L175.78-25.25ZM195.23 0.5Q192.38 0.5 190.9-1.18 189.43-2.85 189.43-5.8L189.43-5.8 189.43-20.3 186.38-20.3 186.88-24.8 189.43-24.8 189.43-30.5 194.83-31.1 194.83-24.8 199.53-24.8 199.53-20.3 194.83-20.3 194.83-7.4Q194.83-5.65 195.53-4.85 196.23-4.05 197.83-4.05L197.83-4.05 199.53-4.05 199.03 0.5 195.23 0.5Z" opacity="1" transform="matrix(1,0,0,1,0,0)" fill="#000000" class="slogan-text-1" data-fill-palette-color="secondary" id="text-1"></path></svg></g></svg></g></svg></g></svg></g><g><svg viewBox="0 0 167.98226688419152 167.98226688419152" height="167.98226688419152" width="167.98226688419152"><g><svg></svg></g><g id="icon-0"><svg viewBox="0 0 167.98226688419152 167.98226688419152" height="167.98226688419152" width="167.98226688419152"><g><path d="M0 83.991c0-46.387 37.604-83.991 83.991-83.991 46.387 0 83.991 37.604 83.991 83.991 0 46.387-37.604 83.991-83.991 83.991-46.387 0-83.991-37.604-83.991-83.991zM83.991 161.845c42.998 0 77.854-34.856 77.854-77.854 0-42.998-34.856-77.854-77.854-77.854-42.998 0-77.854 34.856-77.854 77.854 0 42.998 34.856 77.854 77.854 77.854z" data-fill-palette-color="accent" fill="#000000" stroke="transparent"></path></g><g transform="matrix(1,0,0,1,37.69501203859362,40.175458545573285)"><svg viewBox="0 0 92.59224280700428 87.63134979304495" height="87.63134979304495" width="92.59224280700428"><g><svg xmlns="http://www.w3.org/2000/svg" xmlns:xlink="http://www.w3.org/1999/xlink" version="1.1" x="0" y="0" viewBox="5 7.410999774932861 90 85.17799377441406" enable-background="new 0 0 100 100" xml:space="preserve" height="87.63134979304495" width="92.59224280700428" class="icon-s-0" data-fill-palette-color="accent" id="s-0"><path d="M42.552 83.361c0.575 5.134-0.008 9.228 24.68 9.228 24.689 0 24.105-4.094 24.681-9.228H42.552z" fill="#000000" data-fill-palette-color="accent"></path><path d="M95 79.541c0 1.594-1.29 2.883-2.884 2.883H42.348c-1.593 0-2.883-1.289-2.883-2.883l0 0c0-1.594 1.29-2.883 2.883-2.883h49.768C93.71 76.658 95 77.949 95 79.541L95 79.541z" fill="#000000" data-fill-palette-color="accent"></path><rect x="40.818" y="74.222" width="52.829" height="1.499" fill="#000000" data-fill-palette-color="accent"></rect><path d="M67.231 52.586c-13.391 0-24.286 9.209-24.688 20.699h49.377C91.519 61.795 80.624 52.586 67.231 52.586zM51.301 68.22c-0.451 0-0.817-0.626-0.817-1.399 0-0.772 0.366-1.399 0.817-1.399 0.449 0 0.814 0.627 0.814 1.399C52.117 67.594 51.752 68.22 51.301 68.22zM56.539 61.267c-0.452 0-0.816-0.626-0.816-1.398 0-0.773 0.365-1.4 0.816-1.4 0.452 0 0.816 0.627 0.816 1.4C57.356 60.641 56.991 61.267 56.539 61.267zM61.922 68.22c-0.452 0-0.817-0.626-0.817-1.399 0-0.772 0.366-1.399 0.817-1.399s0.814 0.627 0.814 1.399C62.737 67.594 62.373 68.22 61.922 68.22zM67.163 61.267c-0.453 0-0.817-0.626-0.817-1.398 0-0.773 0.365-1.4 0.817-1.4 0.451 0 0.815 0.627 0.815 1.4C67.979 60.641 67.612 61.267 67.163 61.267zM72.544 68.22c-0.452 0-0.817-0.626-0.817-1.399 0-0.772 0.366-1.399 0.817-1.399 0.45 0 0.814 0.627 0.814 1.399C73.359 67.594 72.994 68.22 72.544 68.22zM77.783 61.267c-0.452 0-0.818-0.626-0.818-1.398 0-0.773 0.367-1.4 0.818-1.4s0.815 0.627 0.815 1.4C78.599 60.641 78.234 61.267 77.783 61.267zM83.164 68.22c-0.451 0-0.816-0.626-0.816-1.399 0-0.772 0.366-1.399 0.816-1.399 0.451 0 0.816 0.627 0.816 1.399C83.98 67.594 83.615 68.22 83.164 68.22z" fill="#000000" data-fill-palette-color="accent"></path><polygon points="36.396,91.62 11.295,91.62 6.048,30.924 41.643,30.924 " fill="#000000" data-fill-palette-color="accent"></polygon><rect x="5" y="27.599" width="37.693" height="2.361" fill="#000000" data-fill-palette-color="accent"></rect><polygon points="31.052,8.972 29.489,7.411 22.727,14.217 22.727,17.298 22.74,17.284 22.74,26.633 24.95,26.633 24.95,15.074 " fill="#000000" data-fill-palette-color="accent"></polygon></svg></g></svg></g></svg></g></svg></g></svg></g><defs></defs></svg><rect width="395.52" height="111.54552825851306" fill="none" stroke="none" visibility="hidden"></rect></g></svg></g></svg>